<?xml version="1.0" encoding="UTF-8" standalone="no"?>
<!-- Generator: Adobe Illustrator 16.0.0, SVG Export Plug-In . SVG Version: 6.00 Build 0)  -->

<svg
   xmlns="http://www.w3.org/2000/svg"
   xmlns:xlink="http://www.w3.org/1999/xlink"
   version="1.1"
   id="Layer_1"
   x="0px"
   y="0px"
   width="1000.0004"
   height="268.83008"
   viewBox="0 0 1000.0004 268.83007"
   enable-background="new 0 0 1000 269.324"
   xml:space="preserve">
  <path
     d="M 461.71875 159.76172 L 461.71875 268.74414 C 461.63275 268.70114 478.29956 268.59217 478.60156 268.70117 C 478.77256 268.91517 478.60156 221.16797 478.60156 221.16797 L 493.83203 221.16797 L 519.68164 268.70117 C 519.68164 268.70117 538.13672 268.91517 538.13672 268.70117 L 512.71484 221.42773 L 514.60742 221.42773 C 523.51342 221.42773 531.38395 213.51008 531.12695 204.45508 C 530.45895 190.21808 531.57895 177.16378 531.12695 176.92578 C 531.12695 168.12978 523.29677 159.97872 514.13477 159.76172 C 513.92077 159.97872 461.82675 159.97872 461.71875 159.76172 z M 478.60352 176.68945 L 514.13477 176.68945 L 514.13477 204.45508 L 478.60352 204.45508 L 478.60352 176.68945 z " />
  <path
     d="m 223.69045,159.892 c 8.045,-0.302 16.95,5.979 16.733,16.667 v 18.543 c -0.214,0.192 -16.733,3.699 -16.947,3.699 v -22.025 h -34.758 v 75.32 h 34.758 c 0.214,0 0.214,-22.477 0,-22.477 0.214,0.217 16.947,3.937 16.947,3.699 -0.345,10.024 0.216,18.777 0,18.777 0.216,13.206 -8.905,16.905 -16.947,16.713 h -34.758 c -10.624,0.192 -16.99,-6.54 -16.99,-16.713 v -75.32 c -0.216,-9.721 6.15,-16.884 16.99,-16.884 h 34.972 z" />
  <path
     d="M 81.623047 159.80469 C 81.0968 159.80258 80.569203 159.83214 80.041016 159.89258 L 27.667969 159.89258 L 27.603516 268.80859 L 44.617188 268.80859 L 44.617188 221.27539 C 44.617187 221.27539 80.491422 221.53439 80.232422 221.27539 C 90.212422 221.53439 96.75 215.06286 96.75 207.25586 L 96.75 176.77539 C 96.9525 166.77508 89.516757 159.83623 81.623047 159.80469 z M 44.617188 176.77539 L 79.824219 176.77539 L 79.824219 204.58789 L 44.617188 204.58789 C 44.617188 204.82289 44.831187 176.77539 44.617188 176.77539 z " />
  <path
     d="m 141.14345,268.809 c -0.214,0 -17.271,0 -16.947,0 V 159.892 h 16.947 z" />
  <path
     d="m 379.92445,252.032 c 0.195,0 35.618,0 35.404,0 v -92.229 h 16.948 v 92.442 c 0.042,9.552 -7.206,16.475 -16.499,16.563 l -36.025,-0.088 c -8.926,0 -16.776,-6.73 -16.776,-16.475 0,-0.323 0,-92.442 0,-92.442 h 16.948 z" />
  <path
     d="m 335.87545,159.892 c 0.195,-0.088 0,16.862 0,16.884 h -26.711 v 92.033 h -16.95 v -92.033 h -27.144 v -16.884 c 0.196,0.192 71,0.15 70.805,0 z" />
  <path
     d="m 700.99645,159.892 c 8.905,-0.259 17.207,8.066 16.948,16.453 0,0.214 0.042,10.603 0,10.41 l -16.948,3.915 c 0.238,0.257 0,-13.895 0,-13.895 h -34.972 v 27.812 c 0.235,0.235 35.402,0.235 35.21,0 10.172,0 16.969,6.257 16.71,17.14 0,0.494 0,30.049 0,30.391 0.259,11.335 -7.871,16.691 -16.71,16.691 h -34.975 c -9.354,0 -16.969,-6.474 -17.183,-16.691 v -8.774 c 5.806,-1.852 16.947,-3.979 16.947,-4.258 v 13.032 h 34.972 c 0,0.238 0,-30.583 0,-30.842 h -35.143 c -9.979,0 -16.563,-5.806 -16.776,-16.688 0.214,0 0,-27.576 0,-27.576 0.214,-9.27 8.042,-17.119 17.183,-17.119 0.281,-0.001 34.737,-0.001 34.737,-0.001 z" />
  <path
     d="m 621.28745,176.775 h -38.391 c -0.194,0 0,27.812 0,27.812 0.192,0 29.271,0 29.271,0 0,0.235 0,16.947 0,16.688 h -29.271 v 30.842 h 38.391 v 16.691 c 0.174,0 -55.124,0 -55.361,0 V 159.892 c 0.237,0.192 55.361,0 55.361,0 z" />
  <path
     d="M 115.24805 27.552734 C 106.17205 27.811734 98.300781 32.690672 98.300781 44.263672 L 98.300781 120.01562 C 98.472781 128.81363 105.95884 136.92072 115.46484 136.51172 L 156.19922 136.51172 C 165.29922 136.68572 173.10467 129.26562 172.88867 120.01562 L 172.88867 44.716797 C 172.88867 34.951797 165.70622 27.553734 156.19922 27.552734 L 115.24805 27.552734 z M 115.24805 44.478516 L 155.96289 44.478516 L 155.96289 119.80078 L 115.24805 119.80078 L 115.24805 44.478516 z " />
  <path
     d="m 304.17545,119.823 h 35.595 v -92.27 h 16.669 l 0.085,92.463 c 0,8.347 -7.657,16.712 -16.755,16.496 -0.452,0 -35.595,0 -35.595,0 -9.122,0.216 -16.971,-7.636 -16.971,-16.688 0.216,-0.238 -0.064,-92.271 0,-92.271 h 16.971 v 92.27 z" />
  <path
     d="m 219.43345,119.823 38.112,-0.043 0.043,16.731 c 0.042,0 -36.779,0 -55.105,0 V 27.553 c 0.259,0 16.691,0 16.95,0 z" />
  <path
     d="m 404.91845,27.488 c 0.214,0.216 27.593,59.341 27.357,59.341 l 26.713,-59.341 h 18.712 v 108.895 h -17.014 V 64.096 l -28.584,61.856 c -0.128,-0.021 -29.079,-61.856 -29.079,-61.856 v 72.287 c 0.259,0 -16.862,0.238 -16.947,0 0,0 0,-109.13 0,-108.895 0.129,0 18.842,0 18.842,0 z" />
  <path
     d="M 689.51172 27.423828 L 647.48633 136.42578 C 647.48633 136.36178 666.19642 136.63933 665.98242 136.36133 C 666.19642 136.36133 677.16842 107.28278 677.23242 107.17578 L 710.50391 107.17578 L 721.94531 136.36133 L 740.5918 136.36133 L 698.54688 27.423828 L 689.51172 27.423828 z M 694.20117 63.835938 C 694.41717 63.835938 704.34961 90.659844 704.34961 90.464844 C 704.34961 90.659844 683.96155 90.464844 683.81055 90.464844 L 694.20117 63.835938 z " />
  <path
     d="M 515.29883 27.492188 C 510.44539 27.4855 507.20898 27.499234 507.20898 27.552734 L 507.20898 136.51172 L 560.41992 136.51172 C 569.53892 136.51172 577.36914 129.56563 577.36914 120.01562 C 577.58314 120.01562 577.41214 89.583281 577.36914 89.238281 C 577.17514 81.108281 571.02391 81.064719 569.75391 80.636719 C 574.22891 78.784719 575.45341 77.407062 575.69141 72.289062 C 575.90541 72.289062 575.69141 44.478797 575.69141 44.716797 C 575.69141 34.779797 567.21452 27.552734 558.97852 27.552734 C 558.97852 27.713234 529.85914 27.51225 515.29883 27.492188 z M 524.17969 44.478516 C 523.98669 44.478516 558.82914 44.737516 558.74414 44.478516 L 558.74414 72.289062 L 524.17969 72.289062 L 524.17969 44.478516 z M 524.17773 88.957031 L 560.41992 88.957031 L 560.41992 119.82227 C 560.41992 120.01427 524.58573 119.58427 524.17773 119.82227 L 524.17773 88.957031 z " />
  <path
     d="m 51.972448,27.553 c 8.021,-0.214 16.926,6.023 16.734,16.712 0,0 0,18.54 -0.043,18.583 -0.174,0.192 -16.691,3.656 -16.907,3.656 V 44.479 h -34.799 V 119.8 h 34.798 c 0.216,0 0.216,-22.453 0,-22.453 0.216,0.216 16.95,3.916 16.95,3.678 -0.345,9.98 0.192,18.775 0,18.775 0.192,13.185 -8.905,16.928 -16.95,16.712 h -34.798 C 6.3314476,136.728 0.00744765,130.038 0.00744765,119.8 V 44.479 c -0.257,-9.742 6.15199995,-16.926 16.95000035,-16.926 z" />
  <path
     d="m 623.99745,136.512 c -0.171,0 -17.249,0.023 -16.947,0 V 27.553 h 16.947" />
  <path
     d="m 853.27389,0 -3.03321,5.6582031 c -1.484,3.827 2.43011,5.8278599 3.16211,8.8808589 -0.195,2.086 0.75311,5.486485 -1.46289,6.646485 -0.561,0.214 -1.39722,0.623 -1.69922,0 3.592,-2.731 -2.1294,-5.700733 -0.1914,-9.052735 -0.861,1.051001 -1.40169,2.191874 -1.67969,3.546876 -0.43,2.001998 -0.43008,4.560703 1.41992,5.720703 -0.689,0.28 -1.76503,0.06584 -2.58203,0.214843 -0.344,0.281 -0.12728,1.248782 -0.98828,0.925782 v 0.519531 l 2.66797,0.212891 c 0.451,0.536999 -0.34558,1.075376 -0.51758,1.484374 l -7.82812,2.322266 -84.05469,0.472656 -0.21485,80.417966 0.21485,160.85938 H 1000.0004 V 27.296875 h -86.59175 l -8.88086,-2.646484 c -1.442,-2.537 -3.74389,-4.862329 -6.08789,-6.861329 -10.109,-8.495999 -27.23084,-9.6788435 -38.71484,-3.464843 -3.699,0.623 -3.07638,4.969187 -6.10938,6.367187 0.088,-1.184 1.37669,-2.343765 1.67969,-3.634765 2.624,-5.27 -4.12989,-8.5365316 -1.46289,-13.2695316 C 854.43348,2.6051094 854.26289,0.711 853.27389,0 Z m 3.61328,4.8398438 c -4.132,2.1939999 1.16098,4.925641 0.70898,7.8066402 l 0.75391,-2.148437 c 0.408,-1.9780002 0.23411,-4.1512033 -1.46289,-5.6582032 z m 20.68164,10.2949222 c 12.28143,0.204942 24.12477,7.312031 30.37695,18.785156 0.602,0.86 0.94658,2.644531 1.89258,2.644531 -0.342,-2.127 -0.83926,-3.976578 -1.69727,-5.892578 9.91301,1.785 20.02255,10.1315 22.56055,20.5625 0.604,1.911 0.77566,4.109078 1.72266,5.830078 0.58,-0.561 0.38787,-2.15275 0.17187,-2.96875 6.862,0.128 13.09783,5.031469 16.17383,11.355469 0.71,0.946 0.71092,2.343437 1.41992,3.398437 -0.3,-6.97 -4.32265,-14.131968 -11.09765,-17.292968 l -7.22852,-2.109375 c -1.462,-5.377 -4.32416,-10.300766 -7.78516,-15.009766 l 68.18165,0.08594 0.0859,107.19531 c -4.367,-1.785 -9.63714,-2.84031 -14.36914,-2.19531 -3.184,-6.54 -8.8159,-13.5923 -16.1289,-14.9043 5.548,4.044 10.603,9.83019 12,16.36719 l -3.78516,2.83789 c 3.14,-0.73 6.32336,-2.53647 10.19336,-2.10547 4.647,0.107 8.69184,1.89344 12.08984,4.77344 v 115.2207 h -37.72656 l 0.043,-9.875 h -23.40039 l -0.043,-8.53906 h -9.20508 l -0.043,-9.07617 h -4.08593 v -1.33008 c -10.324,-0.195 -22.62865,-4.15131 -26.30665,-14.82031 -2.859,-7.893 -2.29953,-17.05493 -2.64453,-26.04493 -0.516,-0.946 -0.43189,-2.94765 -1.46289,-3.09765 -0.128,13.334 -1.54795,25.96012 -5.37695,37.70312 1.031,0.431 2.30128,-0.62644 3.61328,-0.77343 7.679,-1.25 12.94875,4.64745 19.59375,6.68945 -6.86,1.224 -10.43134,-5.4006 -17.52734,-3.8086 -3.787,0.064 -7.227,2.19243 -9.25,5.48243 h -4.34375 c 8.945,-13.185 8.51547,-33.3138 4.73047,-48.8418 5.075,-9.785 2.02286,-22.02456 -2.49414,-31.10156 -0.237,-1.679 0.17118,-3.20522 1.11718,-4.32422 1.184,-1.633 3.52775,-1.78438 4.96875,-0.85938 4.236,3.787 3.57039,9.93788 4.15039,15.42188 5.185,-8.948 2.62547,-21.31553 -2.01953,-29.76953 -4.56,-5.698 -10.45292,-11.26788 -8.04492,-19.42188 1.074,-2.729 2.53819,-5.78356 5.74219,-6.60156 6.086,0.818 12.00078,5.65631 14.2168,11.57031 1.48298,-2.127 5.05596,-2.23351 5.29296,-5.35351 1.16,-4.132 -2.23854,-6.8848 -3.81054,-10.2168 1.914,0.839 2.90548,3.48367 4.64648,3.76367 -0.235,-2.819 0.40899,-6.12995 -0.66601,-8.75195 -3.979,-1.141 -8.34449,-2.002109 -12.64649,-2.412109 2.838,-1.654 7.05658,-1.653485 11.14258,-1.396485 L 900.85,95.671877 c -1.979,-3.528 -4.12964,-6.885469 -7.18164,-9.980469 -8.045,4.279 -16.13353,9.076768 -23.14453,15.634762 -4.175,-6.322994 -3.872,-15.183121 -4,-22.453121 2.796,5.375 5.20345,11.16075 7.43945,16.96875 l 0.30273,-0.169922 c -2.408,-8.82 5.4826,-13.252422 6.5586,-20.607422 -0.086,-0.195 0.11011,-0.622 -0.21289,-0.75 l -6.86127,9.291014 v 3.460937 l -7.40039,-10.603515 c 0.431,-1.397 2.15052,-1.291063 3.22851,-1.914063 l 3.78516,2.408203 c 0.302,-1.141 -0.42959,-2.300797 -0.55859,-3.591797 2.537,-0.623 2.92309,-2.839046 2.62109,-5.248046 -0.729,-1.075002 -2.7534,-0.107422 -2.1914,-2.107422 0.729,-1.163 2.75331,-0.0017 2.94531,-1.677735 -0.323,-1.4 -4.19185,-0.346672 -2.21485,-2.388672 -0.602,-2.042 1.37671,-4.88125 -1.65429,-5.65625 -0.732,-0.238 -1.52816,-0.625046 -1.78516,-1.248047 -0.131,-1.720998 1.05198,-3.396375 2.70899,-3.484374 1.97798,-0.321 4.12889,0.322781 4.83789,2.300781 l 0.83984,1.720703 0.12695,7.59375 c -0.214,0.815 -1.76014,1.352297 -1.24414,2.279297 0.925,0.666 2.81705,0.323797 3.99805,-0.408203 3.141,-3.461 1.24826,-9.03311 -0.42774,-12.53711 0.815,-2.539 -1.16296,-4.71239 -3.29296,-6.02539 -1.979,-0.494 -4.83794,-0.731579 -6.71094,0.107422 -1.398,-0.946 -3.61013,-0.493313 -5.20313,-0.320313 -1.032,0.471 -2.02042,1.525016 -2.10742,2.666016 1.076,2.814 -3.1628,3.266359 -2.2168,6.193359 -0.364,3.205 -1.46131,7.505016 1.67969,9.916016 0.537,0.86 2.32222,1.269687 1.69922,2.429687 -1.162,1.291 -1.57114,3.355938 -0.49414,4.710938 0.278,0.366 0.40734,0.667234 0.27734,0.990234 L 863.8149,74.3125 c -4.819,-2.13 -7.03447,-7.270578 -9.98047,-11.142578 -0.625,-0.54 -1.24821,-3.75e-4 -1.69921,0.515625 l 0.32226,2.324219 c 3.57,3.292 7.27095,6.731328 9.37695,10.861328 -0.171,1.44 -0.49345,2.817265 -0.81445,4.322265 -3.699,-4.838 -6.86134,-11.076031 -10.77734,-16.582031 1.785,-8.108 -3.80438,-16.323812 1.14062,-23.507812 -0.214,-1.569 -1.5e-4,-3.054 1.46485,-4 l -0.17383,8.728515 h -0.53711 c -0.452,-1.355 -10e-4,-3.136625 -0.45313,-4.515625 -1.139,1.916 -1.54562,4.430797 -1.89062,6.841797 2.021,-0.067 -3.3e-4,2.557016 1.76367,2.666016 0.817,0.085 2.47261,0.08605 1.84961,-1.376953 v -0.513672 c 1.16,0.409 1.589,-0.646813 1.375,-1.507813 0,-0.604 3.8e-4,-1.24675 -0.51563,-1.59375 V 23.724609 l 2.83985,-0.666015 c 0.085,-0.818 -1.1643,-0.60436 -0.9043,-1.44336 5.14,-4.107 12.04525,-5.397687 18.90625,-6.429687 0.82113,-0.04844 1.64218,-0.06444 2.46094,-0.05078 z m -33.07227,15.21289 c -0.602,1.721 -1.20234,3.57086 -0.90234,5.50586 1.034,-0.666 1.03469,-2.106219 1.67969,-3.074219 0,3.162 -1.03169,7.078016 0.94531,9.916015 0.452,7.270002 -0.64411,14.368125 -0.53711,21.828126 3.419,7.183999 8.02217,13.703234 13.07617,20.240234 l 0.23438,16.345708 c 0.989,1.721 2.71137,3.05554 4.10937,4.56054 -2.731,1.679 -3.59337,4.73211 -4.10937,7.78711 l -5.71875,8.9668 c 0,4.431 -0.51752,9.05808 2.02148,12.45508 1.892,3.14 -2.71226,4.49686 -0.94726,7.50586 1.59,2.282 2.53839,5.11945 2.15039,8.06445 -3.83,18.821 -2.3421,39.66034 -1.2461,59.27734 -0.474,3.484 3.01132,6.6886 0.94532,9.8086 -5.118,8.667 -14.21719,15.7425 -24.99219,14.6875 v 9.07617 h -11.97852 v 8.53906 H 799.78365 V 262.0332 H 763.26217 V 146.16797 c 4.193,-3.181 9.03344,-5.09645 14.64844,-4.06445 l 5.67773,1.9375 c -0.323,-1.376 -2.10853,-1.9388 -3.26953,-2.8418 1.59,-6.537 6.107,-12.6447 12,-16.3457 -7.354,0.732 -13.11942,8.64865 -16.10742,14.97265 -4.56,-1.056 -9.09922,0.10658 -12.94922,1.89258 V 34.671875 h 65.70703 c -3.87,4.538 -6.15161,9.591234 -7.84961,14.990234 -6.26,1.441 -13.0555,5.766813 -15.9375,12.132813 -0.946,2.539 -1.97905,5.675844 -1.24805,8.214844 1.355,-5.765 4.64613,-11.615235 10.45313,-14.240235 l 5.82812,-1.914062 0.14844,3.097656 c 1.936,-2.453 1.59402,-6.366109 3.29102,-9.162109 3.294,-8.645 12.13179,-15.52736 20.84179,-17.44336 z m 7.94532,2.001953 c 0.11652,3.74e-4 0.25034,0.0067 0.40234,0.02148 v 2.732422 h -0.47461 c 0.36188,-1.210313 -1.67553,-2.759506 0.0723,-2.753907 z m -2.12696,0.230469 c 0.0311,-6.47e-4 0.0625,0.0017 0.0957,0.0078 l -0.39649,0.123047 c -0.38963,0.366609 -0.50298,1.425897 -0.41797,2.197265 -0.84,-0.471 -5.9e-4,-1.482953 0.19141,-2.126953 l 0.22656,-0.07031 c 0.0861,-0.08028 0.18696,-0.128487 0.30078,-0.13086 z m 26.03516,23.871094 c -0.37499,0.01383 -0.7528,0.162891 -1.13867,0.501953 -0.193,1.142 1.2032,0.690641 1.7832,1.056641 0.538,-0.131 0.66783,-0.668641 0.79883,-1.056641 -0.48375,-0.313875 -0.96123,-0.519731 -1.44336,-0.501953 z m -6.56055,2.888672 c 1.16916,-0.04716 2.15197,1.036078 1.63672,2.455078 0.149,0.732 -0.0665,1.24425 -0.51953,1.78125 -0.946,-0.946 -2.96678,-1.996203 -2.30078,-3.783203 0.38225,-0.296 0.79387,-0.437407 1.18359,-0.453125 z m 15.74805,13.503906 c -0.0583,6.8e-4 -0.11656,0.0025 -0.17578,0.0059 0.259,2.02 1.16253,4.558172 1.89453,6.451172 0.214,-1.075 0.29962,-2.107015 0.51562,-3.291015 0.91644,-1.938469 -0.42667,-3.187086 -2.23437,-3.166016 z m 65.08008,3.789062 c 6.882,3.614002 10.98886,10.605002 12.13086,17.875 1.892,10.946998 -1.9786,21.184018 -9.8086,27.916018 3.765,-2.45 7.83028,-5.56894 10.23828,-9.46094 4.645,-6.991 5.07616,-18.067218 1.16016,-25.574218 -2.493,-5.249 -8.1307,-9.807859 -13.7207,-10.75586 z m -148.57422,1.294922 c -2.369,0.214 -4.34719,1.696891 -6.36719,2.837891 -6.11,5.073 -8.49731,11.957875 -8.82031,19.421875 0,9.59 5.24944,18.45223 14.02344,22.99023 -4.623,-4.129 -7.6996,-8.85929 -9.1836,-14.27929 -2.3,-11.273005 -0.27934,-24.241706 10.34766,-30.970706 z m 81.4043,0.623047 c -1.483,4.322 -1.78405,9.050797 -2.62305,13.591797 l 3.57031,-2.429687 c 0,-3.57 -0.62426,-7.46311 -0.94726,-11.16211 z m 8.83984,0.921875 c -0.903,2.044 -1.84852,4.34525 -1.97852,6.90625 2.926,-1.053 1.39752,-4.64825 1.97852,-6.90625 z m -28.47461,8.904297 1.63281,11.810547 c -5.204,-2.648 -1.15981,-7.831547 -1.63281,-11.810547 z m 15.91797,13.499997 c 1.73412,0.0236 3.40572,0.65082 4.44922,2.07032 -3.57,0.775 -7.37838,1.78896 -9.48438,5.29296 -1.893,0.409 -3.78814,-1.78348 -5.11914,0.60352 -0.562,0 -0.34375,-0.60331 -0.34375,-0.94531 l 0.90235,-1.09766 -0.17383,-0.23828 -3.43946,2.49609 c 0.345,-2.216 2.30196,-4.19432 4.00196,-6.11132 1.074,-1.59 2.90076,-0.94472 4.38476,-0.51172 1.291,-1.001 3.08814,-1.58222 4.82227,-1.5586 z m -14.97266,12.50196 -7.16211,10.88281 -0.49414,-2.53516 c 2.108,-3.141 5.29025,-5.69965 7.65625,-8.34765 z m 25.68164,8.3457 c 4.646,6.54 4.64569,15.09936 4.42969,23.44336 -0.861,-0.772 -1.48297,-1.80744 -2.66797,-1.39844 1.291,3.916 1.39844,8.3265 2.02344,12.5625 0.516,3.356 -2.15116,8.53939 1.58984,10.77539 2.109,6.818 -1.58854,12.94816 -0.68554,19.78516 2.237,6.97 1.76128,15.07878 2.36328,22.80078 0.711,5.591 1.76423,12.2395 7.61523,14.5625 -1.85,-5.378 -2.10897,-11.39897 -2.66797,-17.29297 1.162,-13.098 -2.10779,-25.63541 -1.59179,-38.69141 0,-5.401 2.0007,-11.10009 -0.9043,-15.74609 0.518,-8.755 -0.34233,-17.93623 -3.61133,-25.61523 z m -27.875,4.02344 c -0.602,4.733 -1.46214,9.27054 -2.49414,13.81054 -0.991,-0.323 -1.3125,-1.57064 -1.9375,-2.43164 z m 1.72071,17.61328 c 0.214,21.101 4.32162,45.44808 -2.10938,64.95508 -2.753,-18.971 -2.36433,-40.49839 0.38867,-59.27539 z m 20.38867,90.59179 h 25.67969 c -2.408,2.065 -2.10589,5.98011 -5.4629,7.78711 h -5.07617 c -2.45,3.053 -3.61273,7.18502 -7.05273,9.29102 -1.938,-0.409 -3.48377,-2.236 -4.25977,-4 -0.085,-1.462 -0.51781,-2.86106 -0.25781,-4.53906 1.44,-0.818 4.90245,1.18569 4.68945,-1.69531 l -8.30273,-6.43555 z m -14.28125,0.002 2.41015,0.21484 c -3.356,2.518 -3.87343,10.00163 -10.02343,7.76563 1.936,-2.927 4.97028,-5.55147 7.61328,-7.98047 z" />
</svg>
