<?xml version="1.0" encoding="UTF-8"?>
<!-- Generated by Pixelmator Pro 4.2 -->
<svg width="2500" height="2500" viewBox="0 0 2500 2500" xmlns="http://www.w3.org/2000/svg">
    <path id="Path" fill="#ffffff" fill-rule="evenodd" stroke="none" d="M 2500 2500 L 2500 0 L 0 0 L 0 2500 Z M 1293.8125 482.460938 C 1282.969116 393.463867 1332.95459 385.785645 1351.190063 371.661621 C 1399.748901 351.480713 1379.503052 341.260498 1341.047729 339.354004 L 1273.1875 339.46875 C 1267.97644 294.154541 1275.073364 248.270752 1293.734009 206.647217 C 1351.280884 77.753662 1502.741821 19.791748 1632.011475 77.183105 C 1761.255127 134.561279 1819.39856 285.568359 1761.838745 414.461914 L 1401.773438 1237.523438 Z M 737.367188 414.671875 C 679.939941 285.892578 737.953674 135.015137 866.938049 77.688965 C 995.935303 20.362549 1147.072021 78.272461 1204.502075 207.049316 C 1224.761841 252.27124 1231.335693 302.435791 1223.411987 351.35083 L 1096.6875 1237.007813 Z M 1763.554688 534.304688 C 1783.592651 488.940308 1816.473999 450.436768 1858.139282 423.540527 C 1976.566162 346.759521 2134.914063 380.364258 2211.824707 498.58374 C 2288.735352 616.803101 2255.065918 774.891602 2136.63916 851.659668 L 1407.15625 1345.640625 Z M 362.765625 851.671875 C 244.596786 774.96936 211.005096 617.049561 287.747223 498.93396 C 364.489319 380.831299 522.499939 347.252441 640.65448 423.955566 C 682.229858 450.842773 715.032715 489.303589 735.022522 534.600708 L 1090.617188 1345.171875 Z M 1369.890625 1426.023438 L 2067.3125 956.75 C 2107.534912 930.515869 2155.60083 915.263306 2207.220703 915.263306 C 2348.616943 915.263306 2463.243652 1029.591797 2463.243652 1170.638062 C 2463.243652 1311.684204 2348.616943 1426.012695 2207.220703 1426.012695 Z M 292.169891 1425.766235 C 151.110733 1425.766235 36.756313 1311.541504 36.756313 1170.651001 C 36.756313 1029.760498 151.110733 915.522705 292.169891 915.522705 C 343.685822 915.522705 391.64801 930.762207 431.776459 956.974121 L 1127.59375 1425.765625 L 292.171875 1425.765625 Z M 1669.273438 1998.265625 C 1669.27356 1751.57959 1880.460327 1551.611938 2140.945068 1551.611938 C 2197.000244 1551.611938 2258.477051 1565.269043 2300.784424 1584.671875 L 2300.78125 1755.429688 C 2253.330322 1724.206787 2197.750732 1707.605835 2140.945068 1707.690186 C 1980.145874 1707.690186 1849.760864 1837.776855 1849.760864 1998.251709 C 1849.760864 2158.713623 1980.145874 2288.800293 2140.945068 2288.800293 C 2199.685059 2288.800293 2255.040039 2271.446777 2300.784424 2241.577393 L 2300.78125 2411.03125 C 2259.423828 2427.862061 2197.934326 2444.91748 2140.945068 2444.91748 C 1880.460327 2444.91748 1669.27356 2244.936523 1669.273438 1998.265625 Z M 373.6875 1947.382813 L 373.6875 2415.539063 L 200.523438 2415.539063 L 200.523438 1562.335938 L 733.59375 2049.171875 L 733.59375 1580.796875 L 906.757813 1580.796875 L 906.757813 2434.21875 Z M 1006.101563 2416.359375 L 1006.101563 1579.992188 L 1349.710938 1579.992188 C 1479.915039 1579.989746 1584.892212 1664.578613 1585.475952 1794.328125 C 1585.903931 1892.911133 1539.874146 1930.290161 1487.009521 1969.458862 C 1519.407959 1981.287109 1631.881714 2040.675781 1631.881714 2176.728516 C 1631.881714 2312.807373 1528.019897 2416.358154 1391.513184 2416.358154 Z M 1308.90625 1923.945313 C 1369.16626 1923.947998 1418.010376 1875.246338 1418.010376 1815.196289 C 1418.010376 1755.133423 1369.16626 1706.444946 1308.908691 1706.444946 L 1180.195313 1706.429688 L 1180.195313 1923.945313 Z M 1336.898438 2290.8125 C 1404.080811 2290.810547 1458.553833 2236.506348 1458.553833 2169.504395 C 1458.553833 2102.502686 1404.093872 2048.185303 1336.9104 2048.185303 L 1180.226563 2048.898438 L 1180.226563 2290.8125 Z"/>
</svg>
