<?xml version="1.0" encoding="UTF-8" standalone="no"?>
<!-- Created with Inkscape (http://www.inkscape.org/) -->

<svg
   xmlns:dc="http://purl.org/dc/elements/1.1/"
   xmlns:cc="http://creativecommons.org/ns#"
   xmlns:rdf="http://www.w3.org/1999/02/22-rdf-syntax-ns#"
   xmlns:svg="http://www.w3.org/2000/svg"
   xmlns="http://www.w3.org/2000/svg"
   xmlns:sodipodi="http://sodipodi.sourceforge.net/DTD/sodipodi-0.dtd"
   xmlns:inkscape="http://www.inkscape.org/namespaces/inkscape"
   width="248"
   height="247"
   id="svg2"
   version="1.1"
   inkscape:version="0.48.3.1 r9886"
   sodipodi:docname="The_WB_logo 2.svg">
  <metadata
     id="metadata3050">
    <rdf:RDF>
      <cc:Work
         rdf:about="">
        <dc:format>image/svg+xml</dc:format>
        <dc:type
           rdf:resource="http://purl.org/dc/dcmitype/StillImage" />
        <dc:title />
      </cc:Work>
    </rdf:RDF>
  </metadata>
  <defs
     id="defs3048" />
  <sodipodi:namedview
     pagecolor="#ffffff"
     bordercolor="#666666"
     borderopacity="1"
     objecttolerance="10"
     gridtolerance="10"
     guidetolerance="10"
     inkscape:pageopacity="0"
     inkscape:pageshadow="2"
     inkscape:window-width="1280"
     inkscape:window-height="1000"
     id="namedview3046"
     showgrid="false"
     inkscape:zoom="1"
     inkscape:cx="199"
     inkscape:cy="118.5"
     inkscape:window-x="0"
     inkscape:window-y="24"
     inkscape:window-maximized="1"
     inkscape:current-layer="layer1" />
  <g
     inkscape:label="Layer 1"
     inkscape:groupmode="layer"
     id="layer1"
     transform="translate(-306.087,-432.18718)">
    <path
       style="fill:#000000;fill-rule:nonzero;stroke:none"
       d="m 484.14398,657.28439 13.06251,6.69168 -2.00701,-9.44258 11.6408,7.93578 c 0,0 54.76453,-60.29284 46.37203,-117.13076 0,0 -1.87413,-17.49424 -19.13521,-23.0926 0,0 21.41078,-24.2863 15.60771,-42.80424 0,0 -3.96982,-32.47918 -76.04691,-43.71607 l -23.0656,7.26131 -13.5903,-8.22482 -13.75872,28.32489 -17.79495,-11.03468 -99.34133,21.08738 43.8635,206.0475 127.71927,-27.11286 6.47421,5.21007"
       id="path2874"
       inkscape:connector-curvature="0" />
    <path
       style="fill:#ffffff;fill-rule:nonzero;stroke:none"
       d="m 362.11832,634.45996 0.71647,3.33069 -6.57217,1.39932 2.34657,11.00483 -7.2569,1.54605 -2.34535,-11.01361 -6.95029,1.47759 -0.7182,-3.332 20.77938,-4.41287"
       id="path2876"
       inkscape:connector-curvature="0" />
    <path
       style="fill:#ffffff;fill-rule:nonzero;stroke:none"
       d="m 372.56245,632.23968 7.26815,-1.53731 1.11592,5.25487 8.43449,-1.79466 -1.11716,-5.24621 7.29493,-1.55146 3.04994,14.34558 -7.29497,1.54267 -1.18605,-5.56583 -8.42396,1.78719 1.17568,5.57327 -7.25966,1.53739 -3.05731,-14.3455"
       id="path2878"
       inkscape:connector-curvature="0" />
    <path
       style="fill:#ffffff;fill-rule:nonzero;stroke:none"
       d="m 425.42728,624.08882 -10.83988,2.30853 0.55647,2.77865 9.68837,-2.05402 0.65922,2.9365 -9.6935,2.0529 0.52621,2.56108 10.85933,-2.30993 0.68912,3.13235 -18.04692,3.83029 -3.05569,-14.33674 18.03409,-3.82766 0.61694,2.92805"
       id="path2880"
       inkscape:connector-curvature="0" />
    <path
       style="fill:#ffffff;fill-rule:nonzero;stroke:none"
       d="m 378.34272,477.24238 -14.02433,16.86322 c 0,0 8.36173,55.97089 46.88668,104.87467 0,0 3.01707,3.51873 5.08965,3.08613 0,0 2.20794,0.2636 4.1528,-8.08829 1.67968,-7.23629 2.05168,-8.50407 3.65969,-13.52266 0,0 17.64404,44.17383 60.28952,77.09033 l -47.46806,-222.97054 -17.34829,11.39174 27.29056,128.21579 c 0,0 0.62417,2.00232 -0.98424,2.2692 0,0 -1.33971,0.55589 -3.4403,-3.09755 0,0 -20.85495,-43.89608 -36.26298,-122.07548 l -15.72171,13.21154 c 0,0 10.16738,56.46387 22.4629,88.10246 l -3.68603,8.80137 c 0,0 -18.05678,-22.39723 -30.89566,-84.15193"
       id="path2882"
       inkscape:connector-curvature="0" />
    <path
       style="fill:#ffffff;fill-rule:nonzero;stroke:none"
       d="m 462.17977,498.01397 -14.0181,-65.82679 c 0,0 28.84221,2.66996 45.0976,8.62685 0,0 38.91167,9.33241 43.55903,33.33795 0,0 5.73829,21.14864 -16.41142,41.8952 0,0 16.23532,2.26511 20.24775,25.47916 0,0.002 11.49738,41.28878 -45.46965,112.61899 L 462.17977,498.01397"
       id="path2884"
       inkscape:connector-curvature="0" />
    <path
       style="fill:#000000;fill-rule:nonzero;stroke:none"
       d="m 473.53042,457.54617 13.00026,61.09417 c 0,0 32.57775,-19.99088 29.2552,-38.51701 0,0 -1.50376,-16.46252 -42.25546,-22.57716"
       id="path2886"
       inkscape:connector-curvature="0" />
    <path
       style="fill:#000000;fill-rule:nonzero;stroke:none"
       d="m 492.41471,544.25334 c -0.002,0 22.53711,-21.85672 27.6787,1.3281 0,0 5.71027,21.00055 -14.81644,59.089 l -12.86226,-60.4171"
       id="path2888"
       inkscape:connector-curvature="0" />
  </g>
</svg>
