<?xml version="1.0" encoding="UTF-8" standalone="no"?>
<!-- Generator: Adobe Illustrator 23.0.1, SVG Export Plug-In . SVG Version: 6.00 Build 0)  -->

<svg
   version="1.1"
   id="Livello_1"
   x="0px"
   y="0px"
   viewBox="8 5 610 112"
   enable-background="new 0 0 600.26 122.1"
   xml:space="preserve"
   width="629.922"
   height="122.1"
   xmlns="http://www.w3.org/2000/svg"
   xmlns:svg="http://www.w3.org/2000/svg"><defs
   id="defs64"><linearGradient
     id="linearGradient1000"
     gradientUnits="userSpaceOnUse"
     x1="8.0859003"
     y1="63.357899"
     x2="118.3417"
     y2="63.357899"
     gradientTransform="matrix(1,0,0,-1,0,124)"><stop
       offset="0"
       style="stop-color:#4047FF"
       id="stop44-3" /><stop
       offset="1"
       style="stop-color:#04006C"
       id="stop46-6" /></linearGradient><linearGradient
     id="SVGID_1_-0"
     gradientUnits="userSpaceOnUse"
     x1="-523.34198"
     y1="522.44952"
     x2="348.6055"
     y2="522.44952"
     gradientTransform="matrix(0.33254881,0,0,-0.33243186,519.31625,245.72465)"><stop
       offset="0"
       style="stop-color:#4047FF"
       id="stop1081" /><stop
       offset="1"
       style="stop-color:#04006C"
       id="stop1083" /></linearGradient></defs>

<g
   id="g893"
   transform="matrix(0.38024035,0,0,0.38023959,-123.02861,33.268384)"><path
     d="m 635.24258,17.347522 c -2.208,15.106666 -9.31334,64.463999 -45.412,112.909328 -36.72133,49.884 -85.00267,74.08667 -99.57067,81.53333 -14.56666,-7.44666 -62.84933,-31.64933 -99.56973,-81.53333 C 354.59072,81.811521 347.48659,32.454188 345.27765,17.347522 L 367.21312,5.5835224 V -10.735144 l 21.736,-11.774666 v -16.306666 c 30.07186,-14.338667 63.20013,-23.769333 101.31079,-28.833333 38.11067,5.064 71.24,14.494666 101.312,28.833333 v 16.306666 l 21.736,11.774666 V 5.5835224 Z m -2.3,-23.4826659 V -22.399144 l -21.736,-11.774666 v -17.006666 l -11.15067,-5.310667 c -31.684,-15.107999 -66.71866,-25.197332 -107.12933,-30.566666 l -2.64133,-0.356 -2.64,0.356 c -40.41067,5.369334 -75.44613,15.458667 -107.13,30.566666 l -11.15,5.310667 v 17.006666 l -21.736,11.774666 v 16.2640001 l -23.61773,12.6666663 1.8672,13.4999996 c 6.25733,45.294666 22.77093,86.287998 49.06146,121.863998 26.5704,35.948 62.4384,65.35733 106.60374,87.432 l 8.74133,4.372 8.74266,-4.372 c 44.16534,-22.07467 80.03334,-51.484 106.60267,-87.432 26.29066,-35.576 42.80533,-76.569332 49.06266,-121.863998 L 656.55991,6.5315224 632.94258,-6.1351439"
     style="fill:#000000;fill-opacity:1;fill-rule:nonzero;stroke:none;stroke-width:0.133333"
     id="path26" /><path
     d="m 457.77325,-28.40181 1.00933,132.676 -0.936,0.54666 c -14.044,-35.497329 -22.41866,-79.799995 -25.05733,-124.223994 -6.89733,3.098667 -14.21467,6.937334 -21.71307,11.6880001 3.03067,40.3053319 9.91707,75.5733319 22.29707,109.0466639 l -7.004,4.05867 c -18.5624,-25.994669 -30.69,-57.609335 -39.01813,-95.112001 -5.73387,5.152 -11.42867,10.924 -16.98227,17.390666 10.8828,45.011999 28.0104,79.115995 53.04707,106.882665 l 19.3,-11.53733 c 9.45333,19.70133 22.73866,39.14266 37.332,54.68266 V -32.33381 c -7.432,0.722667 -14.77734,2.004 -22.27467,3.932"
     style="fill:#000000;fill-opacity:1;fill-rule:nonzero;stroke:none;stroke-width:0.133333"
     id="path28" /><path
     d="m 549.63991,109.25685 c -6.21333,7.16267 -16.388,18.08667 -27.4,26.596 V 75.590187 c 0,0 39.90267,-22.454666 41.368,-23.414666 11.94267,3.025334 11.33734,11.810667 11.336,12.724 -0.012,11.065333 -11.32133,28.195999 -25.304,44.357329 z m -27.4,-116.4746606 c 10.86934,0 46.03467,11.1186664 46.03467,25.1599996 0,5.061333 -4.46667,12.314666 -18.376,19.619999 l -27.65867,14.830667 z m 59.77067,47.2106656 c 7.86533,-8.708 9.54,-15.045333 9.54,-22.709333 0,-10.8493329 -8.96133,-20.502666 -21.99733,-28.798666 -7.87467,-5.012 -19.92667,-11.081333 -37.50534,-15.979999 -10.11333,-2.717334 -20.66,-4.366667 -31.512,-4.838667 v 210.03066 c 44.144,-22.728 96.624,-85.003996 96.88934,-116.689329 0.0813,-9.685333 -5.032,-16.018666 -15.41467,-21.014666"
     style="fill:#000000;fill-opacity:1;fill-rule:nonzero;stroke:none;stroke-width:0.133333"
     id="path30" /></g><g
   id="g887"
   style="fill:#000000"
   transform="matrix(0.16148102,0,0,-0.15762027,141.14446,152.10547)"><path
     d="m 778.121,558.211 v 125.437 c 7.957,0 24.098,0 31.02,0 36.539,0 53.293,-15.617 53.293,-38.359 0,-48.129 -84.313,-87.078 -84.313,-87.078 z m 149.356,92.641 c 0,64.179 -58.274,90.609 -133.473,90.609 H 713.07 V 404.219 h 65.051 v 80.742 c 10.254,7.617 29.66,19.687 48.246,32.43 l 55.891,-113.172 h 68.414 l -73.789,152.742 c 28.019,26.129 50.594,57.66 50.594,93.891"
     style="fill:#000000;fill-opacity:1;fill-rule:nonzero;stroke:none"
     id="path32" /><path
     d="m 1613.71,558.211 v 125.437 c 7.95,0 24.09,0 31.01,0 36.54,0 53.3,-15.617 53.3,-38.359 0,-48.129 -84.31,-87.078 -84.31,-87.078 z m 149.35,92.641 c 0,64.179 -58.27,90.609 -133.47,90.609 h -80.94 V 404.219 h 65.06 v 80.742 c 10.25,7.617 29.65,19.687 48.24,32.43 l 55.89,-113.172 h 68.41 l -73.79,152.742 c 28.03,26.129 50.6,57.66 50.6,93.891"
     style="fill:#000000;fill-opacity:1;fill-rule:nonzero;stroke:none"
     id="path34" /><path
     d="m 2255.94,558.211 v 125.437 c 7.95,0 24.09,0 31.02,0 36.53,0 53.29,-15.617 53.29,-38.359 0,-48.129 -84.31,-87.078 -84.31,-87.078 z m 149.35,92.641 c 0,64.179 -58.27,90.609 -133.47,90.609 h -80.94 V 404.219 h 65.06 v 80.742 c 10.25,7.617 29.66,19.687 48.24,32.43 l 55.89,-113.172 h 68.42 l -73.79,152.742 c 28.02,26.129 50.59,57.66 50.59,93.891"
     style="fill:#000000;fill-opacity:1;fill-rule:nonzero;stroke:none"
     id="path36" /><path
     d="m 338.168,404.219 84.781,337.242 h -65.511 l -50.59,-231.25 h -1.93 l -53.469,231.25 h -53.965 l -53.961,-231.25 h -1.925 L 91.9688,741.461 H 25 l 84.801,-337.242 h 61.668 L 223.5,625.84 h 1.445 l 52.028,-221.621 h 61.195"
     style="fill:#000000;fill-opacity:1;fill-rule:nonzero;stroke:none"
     id="path38" /><path
     d="m 507.512,531.898 34.168,132.493 h 1.48 l 34.68,-132.493 z m 0,209.563 -101.18,-337.242 h 68.391 l 20.734,77.07 h 94.438 l 20.683,-77.07 h 67.981 l -99.746,337.242 h -71.301"
     style="fill:#000000;fill-opacity:1;fill-rule:nonzero;stroke:none"
     id="path40" /><path
     d="m 1165.7,536.711 -126.21,204.75 H 985.035 V 404.219 h 65.045 v 204.75 h 2.4 l 126.24,-204.75 h 54.43 v 337.242 h -65.03 v -204.75 h -2.42"
     style="fill:#000000;fill-opacity:1;fill-rule:nonzero;stroke:none"
     id="path42" /><path
     d="m 1500.51,464.441 h -134.88 v 84.309 h 101.17 v 55.41 h -101.17 v 77.078 h 130.08 v 60.223 H 1300.58 V 404.219 h 199.93 v 60.222"
     style="fill:#000000;fill-opacity:1;fill-rule:nonzero;stroke:none"
     id="path44" /><path
     d="m 2569.07,688.418 c 48.21,0 62.31,-58.527 62.31,-115.629 0,-57.051 -14.1,-115.621 -62.31,-115.621 -48.16,0 -62.26,58.57 -62.26,115.621 0,57.102 14.1,115.629 62.26,115.629 z m 0,-291.469 c 86.72,0 127.32,82.071 127.32,175.84 0,93.672 -40.6,175.891 -127.32,175.891 -86.72,0 -127.32,-82.219 -127.32,-175.891 0,-93.769 40.6,-175.84 127.32,-175.84"
     style="fill:#000000;fill-opacity:1;fill-rule:nonzero;stroke:none"
     id="path46" /><path
     d="m 2846.77,599.32 c -26.51,16.86 -53.26,28.899 -53.26,57.809 0,19.281 17.12,33.73 36.39,33.73 21.68,0 43.63,-14.449 50.84,-26.5 l 40.96,38.551 c -19.27,26.5 -53.25,45.77 -94.21,45.77 -60.23,0 -99.02,-36.129 -99.02,-91.551 0,-60.219 43.62,-86.719 78.78,-106.957 27.47,-15.891 54.23,-27.953 54.23,-56.852 0,-24.101 -21.94,-38.55 -46.03,-38.55 -24.1,0 -48.44,14.449 -62.89,36.14 l -38.55,-38.551 c 21.69,-33.718 65.31,-55.41 103.85,-55.41 60.23,0 108.66,38.551 108.66,96.371 0,60.219 -45.06,84.309 -79.75,106"
     style="fill:#000000;fill-opacity:1;fill-rule:nonzero;stroke:none"
     id="path48" /><path
     d="m 2988.87,471.641 c -21.68,0 -36.14,-16.86 -36.14,-36.129 0,-19.274 14.46,-36.133 36.14,-36.133 21.67,0 36.13,16.859 36.13,36.133 0,19.269 -14.46,36.129 -36.13,36.129"
     style="fill:#000000;fill-opacity:1;fill-rule:nonzero;stroke:none"
     id="path50" /><path
     d="m 1983.25,463.949 v 70.242 c 21.25,8.469 44.77,19.489 66.33,33.047 10.11,-6.75 32.51,-24.519 32.51,-49.41 0,-32.918 -30.13,-52.539 -98.84,-53.879 z m 0,221.199 c 8.04,0 23.28,0 31.6,0 29.85,0 45.16,-7.828 45.16,-24.718 0,-30.399 -63.86,-57.539 -76.76,-62.711 z m 109.97,-82.867 c 17.45,18.77 28.85,40.5 28.85,65.188 0,48.281 -41.23,73.383 -100.39,73.992 H 1918.19 V 404.219 h 65.06 c 105.91,3.113 160.49,46.011 160.49,111.109 0,48.281 -40.64,79.961 -50.52,86.953"
     style="fill:#000000;fill-opacity:1;fill-rule:nonzero;stroke:none"
     id="path52" /></g></svg>
